<svg width="32" height="32" viewBox="0 0 32 32" fill="none" xmlns="http://www.w3.org/2000/svg">
<g clip-path="url(#clip0_6_96)">
<path d="M23.9998 0H8.00017C3.60067 0 0.000366211 3.6003 0.000366211 7.9998V24.0002C0.000366211 28.3985 3.60067 32 8.00017 32H23.9998C28.3993 32 31.9996 28.3985 31.9996 24.0002V7.9998C31.9996 3.6003 28.3993 0 23.9998 0ZM29.3329 24.0002C29.3329 26.9401 26.9413 29.3333 23.9998 29.3333H8.00017C5.05985 29.3333 2.6671 26.9401 2.6671 24.0002V7.9998C2.6671 5.0591 5.05985 2.66673 8.00017 2.66673H23.9998C26.9413 2.66673 29.3329 5.0591 29.3329 7.9998V24.0002Z" fill="#AD0D0D"/>
<path d="M24.6677 9.33303C25.7723 9.33303 26.6677 8.43762 26.6677 7.33308C26.6677 6.22854 25.7723 5.33313 24.6677 5.33313C23.5632 5.33313 22.6678 6.22854 22.6678 7.33308C22.6678 8.43762 23.5632 9.33303 24.6677 9.33303Z" fill="#AD0D0D"/>
<path d="M16 7.99976C11.5809 7.99976 8.00018 11.5808 8.00018 15.9996C8.00018 20.4166 11.5809 24.0001 16 24.0001C20.4178 24.0001 23.9998 20.4166 23.9998 15.9996C23.9998 11.5808 20.4178 7.99976 16 7.99976ZM16 21.3334C13.0548 21.3334 10.6669 18.9455 10.6669 15.9996C10.6669 13.0536 13.0548 10.6665 16 10.6665C18.9451 10.6665 21.3331 13.0536 21.3331 15.9996C21.3331 18.9455 18.9451 21.3334 16 21.3334Z" fill="#AD0D0D"/>
</g>
<defs>
<clipPath id="clip0_6_96">
<rect width="32" height="32" fill="white"/>
</clipPath>
</defs>
</svg>
