<svg width="32" height="32" viewBox="0 0 32 32" fill="none" xmlns="http://www.w3.org/2000/svg">
<path fill-rule="evenodd" clip-rule="evenodd" d="M16 0.081665C9.38181 0.081665 4 5.46348 4 12.0817C4 14.1685 4.67834 16.4023 5.6878 18.5753C6.69834 20.7506 8.04811 22.8805 9.40815 24.7638C12.1282 28.5304 14.9039 31.3303 15.1329 31.5603L15.1338 31.5612C15.364 31.79 15.6754 31.9184 16 31.9184C16.3246 31.9184 16.636 31.79 16.8662 31.5612L16.8671 31.5603C17.0961 31.3303 19.8718 28.5304 22.5918 24.7638C23.9519 22.8805 25.3017 20.7506 26.3122 18.5753C27.3217 16.4023 28 14.1685 28 12.0817C28 5.46348 22.6182 0.081665 16 0.081665ZM6.44898 12.0817C6.44898 6.81545 10.7338 2.53065 16 2.53065C21.2662 2.53065 25.551 6.81545 25.551 12.0817C25.551 15.1114 23.7262 18.7306 21.5719 21.9359C19.5301 24.9738 17.2232 27.5957 16 28.9178C14.7768 27.5958 12.4699 24.9753 10.4281 21.9381C8.27378 18.7336 6.44898 15.1143 6.44898 12.0817ZM16 5.95918C12.6243 5.95918 9.87755 8.70588 9.87755 12.0816C9.87755 15.4574 12.6243 18.2041 16 18.2041C19.3757 18.2041 22.1224 15.4574 22.1224 12.0816C22.1224 8.70588 19.3757 5.95918 16 5.95918ZM12.3265 12.0816C12.3265 10.0559 13.9743 8.40816 16 8.40816C18.0257 8.40816 19.6735 10.0559 19.6735 12.0816C19.6735 14.1074 18.0257 15.7551 16 15.7551C13.9743 15.7551 12.3265 14.1074 12.3265 12.0816Z" fill="#AD0D0D"/>
</svg>
