<svg width="650" height="196" viewBox="0 0 650 196" fill="none" xmlns="http://www.w3.org/2000/svg">
<g clip-path="url(#clip0_6_161)">
<path d="M43.97 32.07C41.15 32.58 39.03 33.91 37.62 36.08C36.21 38.25 35.5 41.25 35.5 45.08V109.19C35.7 112.11 36.53 114.43 38 116.14C39.46 117.86 41.45 118.81 43.97 119.01V127.93C30.26 127.63 19.55 122.99 11.84 114.02C4.13003 105.04 0.280029 92.8 0.280029 77.27C0.280029 70.31 1.11003 63.87 2.78003 57.92C4.44003 51.97 6.84003 46.68 9.96003 42.04C12.58 38.31 15.75 35.01 19.49 32.14C23.22 29.27 27.05 27.07 30.98 25.56C32.79 24.86 34.63 24.3 36.5 23.9C38.36 23.5 40.15 23.29 41.87 23.29L43.99 23.14V32.06L43.97 32.07ZM50.02 32.07V23.3C50.22 23.4 50.45 23.48 50.7 23.53C50.95 23.58 51.18 23.61 51.38 23.61C51.78 23.71 52.21 23.79 52.67 23.84C53.12 23.89 53.55 23.97 53.96 24.07C55.07 24.37 56.33 24.75 57.74 25.2C59.15 25.65 61.22 26.39 63.94 27.39C65.35 27.9 66.41 28.25 67.11 28.45C67.81 28.65 68.42 28.75 68.92 28.75H69.52C70.02 28.65 70.53 28.42 71.03 28.07C71.53 27.72 71.88 27.29 72.09 26.78L73 24.81C73.3 24.41 73.76 24.05 74.36 23.75C74.96 23.45 75.62 23.3 76.32 23.3C77.73 23.3 78.76 23.7 79.42 24.51C80.07 25.32 80.4 26.48 80.4 27.99V58.53C80.4 60.34 80.05 61.76 79.34 62.76C78.63 63.77 77.58 64.27 76.17 64.27C75.06 64.27 74.13 63.87 73.37 63.06C72.61 62.25 72.03 61.04 71.63 59.43C69.51 51.37 66.59 44.99 62.86 40.3C59.13 35.61 54.85 32.92 50.01 32.21V32.06L50.02 32.07ZM50.02 118.86C55.06 118.66 59.62 116.9 63.7 113.57C67.78 110.24 70.58 106.11 72.09 101.17C72.59 99.56 73.17 98.42 73.83 97.77C74.49 97.12 75.37 96.79 76.48 96.79C77.59 96.79 78.55 97.22 79.35 98.08C80.16 98.94 80.56 100.02 80.56 101.33C80.56 102.74 80.23 104.33 79.58 106.09C78.92 107.85 77.99 109.64 76.78 111.46C75.87 112.97 74.84 114.43 73.68 115.84C72.52 117.25 71.28 118.56 69.98 119.77C69.58 120.17 69.17 120.53 68.77 120.83C68.37 121.13 67.96 121.43 67.56 121.74C64.84 123.86 62.09 125.39 59.32 126.35C56.55 127.31 53.45 127.84 50.02 127.94V118.87V118.86Z" fill="white"/>
<path d="M132.12 111.9C132.12 113.71 132.32 114.98 132.72 115.68C133.12 116.39 134.13 116.99 135.74 117.49C136.04 117.49 136.35 117.54 136.65 117.64C136.95 117.74 137.3 117.84 137.71 117.94C138.82 118.24 139.68 118.72 140.28 119.38C140.88 120.04 141.19 120.87 141.19 121.88C141.19 123.29 140.68 124.33 139.68 124.98C138.67 125.64 137.01 125.96 134.69 125.96H97.19C95.27 125.96 93.86 125.63 92.96 124.98C92.05 124.33 91.6 123.34 91.6 122.03C91.6 121.12 91.85 120.34 92.36 119.69C92.86 119.04 93.62 118.56 94.63 118.25C95.03 118.15 95.41 118.02 95.76 117.87C96.11 117.72 96.39 117.59 96.59 117.49C97.7 116.99 98.4 116.41 98.71 115.75C99.01 115.1 99.16 114.06 99.16 112.65V38.57C99.16 37.16 99.03 36.15 98.78 35.55C98.53 34.95 97.85 34.39 96.74 33.89C96.44 33.79 96.11 33.66 95.76 33.51C95.41 33.36 95.03 33.23 94.63 33.13C93.62 32.73 92.87 32.22 92.36 31.62C91.85 31.01 91.6 30.21 91.6 29.2C91.6 27.89 92.08 26.91 93.04 26.25C94 25.6 95.38 25.27 97.2 25.27L99.17 25.12H132.13V111.91L132.12 111.9ZM137.87 33.28V25.12H139.68C146.53 25.22 151.7 25.52 155.18 26.03C158.66 26.53 161.81 27.54 164.63 29.05C165.03 29.15 165.41 29.3 165.76 29.5C166.11 29.7 166.44 29.9 166.74 30.1C170.67 32.32 173.62 35.22 175.58 38.79C177.55 42.37 178.53 46.42 178.53 50.96C178.53 54.69 177.82 58.22 176.41 61.54C175 64.87 172.98 67.54 170.36 69.55L170.06 69.85C169.05 70.66 167.99 71.36 166.89 71.97C165.78 72.57 164.47 73.18 162.96 73.78C161.85 74.29 160.62 74.76 159.26 75.22C157.9 75.67 156.31 76.15 154.5 76.66C154.9 76.76 155.31 76.84 155.71 76.89C156.11 76.94 156.52 76.97 156.92 76.97C159.84 77.48 162.16 78.01 163.88 78.56C165.59 79.11 167.26 79.8 168.87 80.6C169.07 80.7 169.27 80.83 169.47 80.98C169.67 81.13 169.87 81.26 170.07 81.36C172.59 82.87 174.55 84.79 175.97 87.11C177.38 89.43 178.09 91.9 178.09 94.52V109.64C178.09 110.45 178.21 111.05 178.47 111.45C178.72 111.85 179.1 112.05 179.6 112.05C179.8 112.05 179.95 112.03 180.05 111.97C180.15 111.92 180.25 111.89 180.35 111.89C180.55 111.79 180.75 111.61 180.95 111.36C181.15 111.11 181.4 110.78 181.71 110.38C182.01 110.08 182.32 109.78 182.62 109.47C182.92 109.17 183.28 108.92 183.68 108.71C183.98 108.51 184.28 108.36 184.59 108.26C184.89 108.16 185.19 108.11 185.5 108.11C185.6 108.11 185.73 108.14 185.88 108.19C186.03 108.24 186.21 108.27 186.41 108.27C187.01 108.57 187.59 109 188.15 109.56C188.7 110.11 189.03 110.69 189.13 111.3C189.23 111.5 189.28 111.65 189.28 111.75V112.05C189.28 112.86 189.05 113.81 188.6 114.92C188.15 116.03 187.52 117.14 186.71 118.25C185.8 119.46 184.79 120.62 183.69 121.73C182.59 122.84 181.37 123.85 180.06 124.75C178.35 125.76 176.41 126.54 174.24 127.09C172.07 127.64 169.63 127.92 166.91 127.92C160.36 127.92 155.24 126.08 151.56 122.4C147.88 118.72 146.04 113.56 146.04 106.9V94.35C146.04 90.22 145.41 87.14 144.15 85.13C142.89 83.11 140.8 81.95 137.88 81.65V73.48C140.9 73.18 143.02 72.27 144.23 70.76C145.44 69.25 146.04 66.83 146.04 63.5V43.84C146.04 40.82 145.49 38.57 144.38 37.11C143.27 35.65 141.1 34.41 137.88 33.41V33.26L137.87 33.28Z" fill="white"/>
<path d="M204.84 125.96H202.87C200.95 125.96 199.54 125.63 198.64 124.98C197.73 124.33 197.28 123.34 197.28 122.03C197.28 121.12 197.53 120.34 198.04 119.69C198.54 119.04 199.3 118.56 200.31 118.25C200.71 118.15 201.09 118.02 201.44 117.87C201.79 117.72 202.12 117.59 202.42 117.49C203.53 116.99 204.21 116.43 204.46 115.83C204.71 115.23 204.84 114.17 204.84 112.66V38.57C204.84 37.16 204.71 36.15 204.46 35.55C204.21 34.95 203.53 34.39 202.42 33.89C202.12 33.79 201.79 33.66 201.44 33.51C201.09 33.36 200.71 33.23 200.31 33.13C199.3 32.82 198.55 32.32 198.04 31.64C197.53 30.96 197.28 30.15 197.28 29.2C197.28 27.79 197.76 26.76 198.72 26.1C199.68 25.45 201.06 25.12 202.88 25.12L204.85 24.97H239.78C241.69 25.17 243.11 25.57 244.01 26.18C244.92 26.78 245.37 27.79 245.37 29.2C245.37 30.15 245.12 30.96 244.61 31.64C244.1 32.32 243.35 32.82 242.34 33.13C241.94 33.23 241.56 33.36 241.21 33.51C240.86 33.66 240.53 33.79 240.23 33.89C239.12 34.4 238.44 34.95 238.19 35.55C237.94 36.15 237.81 37.21 237.81 38.72V112.5C237.81 114.11 237.93 115.22 238.19 115.83C238.44 116.43 239.12 116.99 240.23 117.49C240.53 117.59 240.86 117.72 241.21 117.87C241.56 118.02 241.94 118.15 242.34 118.25C243.35 118.55 244.1 119.03 244.61 119.69C245.11 120.35 245.37 121.13 245.37 122.03C245.37 123.34 244.89 124.32 243.93 124.98C242.97 125.64 241.59 125.96 239.77 125.96H204.84Z" fill="white"/>
<path d="M310.83 66.54L317.18 44.16V68.65L300.1 125.95H296.32L267.59 40.98C267.49 40.68 267.36 40.35 267.21 40C267.06 39.65 266.93 39.27 266.83 38.87C266.12 37.26 265.37 36.1 264.56 35.39C263.75 34.69 262.64 34.18 261.23 33.88C259.62 33.58 258.41 33.05 257.6 32.29C256.79 31.53 256.39 30.55 256.39 29.34C256.39 28.03 256.87 27.02 257.83 26.32C258.79 25.62 260.07 25.26 261.69 25.26L296.31 25.11L310.82 66.54H310.83ZM275.3 81.51V103.74C275.3 107.17 275.75 109.89 276.66 111.9C277.57 113.92 279.03 115.58 281.04 116.89L283.76 118.4C284.77 119.11 285.5 119.76 285.95 120.37C286.4 120.97 286.63 121.68 286.63 122.49C286.63 123.7 286.15 124.58 285.19 125.14C284.23 125.7 282.85 125.97 281.03 125.97H262.58C260.77 125.97 259.38 125.69 258.42 125.14C257.46 124.59 256.98 123.65 256.98 122.34C256.98 121.84 257.06 121.41 257.21 121.05C257.36 120.7 257.64 120.37 258.04 120.07C258.14 119.97 258.32 119.84 258.57 119.69C258.82 119.54 259.1 119.36 259.4 119.16C262.22 117.65 264.29 115.63 265.6 113.11C266.91 110.59 267.57 107.52 267.57 103.89V59.14L275.28 81.52L275.3 81.51ZM356.34 25.11H358.31C360.12 25.31 361.48 25.72 362.39 26.32C363.3 26.93 363.75 27.93 363.75 29.34C363.75 30.25 363.52 31.03 363.07 31.68C362.62 32.34 361.88 32.81 360.88 33.12C360.48 33.22 360.07 33.35 359.67 33.5C359.27 33.65 358.91 33.78 358.61 33.88C357.5 34.39 356.82 34.94 356.57 35.54C356.32 36.14 356.19 37.2 356.19 38.71V112.49C356.19 114.1 356.32 115.21 356.57 115.82C356.82 116.42 357.5 116.98 358.61 117.48C358.91 117.58 359.26 117.71 359.67 117.86C360.07 118.01 360.48 118.14 360.88 118.24C361.89 118.54 362.62 119.02 363.07 119.68C363.52 120.34 363.75 121.12 363.75 122.02C363.75 123.33 363.3 124.31 362.39 124.97C361.48 125.63 360.12 125.95 358.31 125.95H320.66C318.44 125.95 316.8 125.62 315.75 124.97C314.69 124.32 314.16 123.28 314.16 121.87C314.16 120.86 314.46 120.03 315.07 119.37C315.67 118.72 316.53 118.29 317.64 118.08C318.04 117.98 318.4 117.91 318.7 117.85C319 117.8 319.25 117.73 319.46 117.62C321.17 117.12 322.23 116.51 322.64 115.81C323.04 115.11 323.24 113.84 323.24 112.03V25.11H356.35H356.34Z" fill="white"/>
<path d="M410.01 23.15V31.62C406.88 32.53 404.49 33.84 402.83 35.55C401.17 37.26 400.33 39.43 400.33 42.05C400.33 44.37 400.91 46.41 402.07 48.17C403.23 49.94 405.07 51.57 407.59 53.08C408.4 53.48 409.45 54.01 410.76 54.67C412.07 55.33 414.14 56.26 416.96 57.47L423.31 60.19C425.22 61.1 426.89 61.9 428.3 62.61C429.71 63.32 430.97 63.97 432.08 64.58C433.09 65.09 433.99 65.64 434.8 66.24C435.61 66.84 436.36 67.45 437.07 68.05C437.37 68.35 437.68 68.63 437.98 68.88C438.28 69.13 438.59 69.41 438.89 69.71C442.42 72.94 445.04 76.46 446.75 80.29C448.46 84.12 449.32 88.41 449.32 93.14C449.32 102.92 445.87 111.06 438.96 117.56C432.05 124.06 423.11 127.51 412.12 127.92V119.45C416.25 118.54 419.28 117.18 421.19 115.37C423.1 113.56 424.06 111.14 424.06 108.11C424.06 106.2 423.71 104.51 423 103.04C422.29 101.58 421.03 100.19 419.22 98.88C418.01 97.97 416.5 97.04 414.68 96.08C412.87 95.12 410.65 94.09 408.03 92.98C403.29 90.96 399.46 89.2 396.54 87.69C393.62 86.18 391.15 84.77 389.13 83.46C384.59 80.13 381.17 76.25 378.85 71.82C376.53 67.39 375.37 62.4 375.37 56.85C375.37 47.07 378.47 39.16 384.67 33.11C390.87 27.06 399.31 23.79 410 23.28V23.13L410.01 23.15ZM406.08 119.46V127.93C404.97 127.93 403.86 127.85 402.75 127.7C401.64 127.55 400.53 127.32 399.42 127.02C398.31 126.72 397.2 126.39 396.09 126.04C394.98 125.69 393.87 125.21 392.76 124.6C391.25 123.9 390.14 123.39 389.43 123.09C388.72 122.79 388.12 122.59 387.62 122.49H386.71C386.41 122.49 386.11 122.52 385.8 122.57C385.5 122.62 385.25 122.7 385.04 122.8C384.64 123 384.23 123.3 383.83 123.71C383.43 124.11 382.92 124.72 382.32 125.52L382.02 125.82C381.92 125.92 381.82 126.02 381.72 126.12C381.32 126.42 380.96 126.65 380.66 126.8C380.36 126.95 379.95 127.03 379.45 127.03C378.14 127.03 377.13 126.47 376.43 125.37C375.72 124.26 375.37 122.7 375.37 120.68V93.77C375.37 92.46 375.77 91.33 376.58 90.37C377.39 89.41 378.39 88.93 379.6 88.93C380.71 88.93 381.56 89.26 382.17 89.91C382.78 90.57 383.28 91.7 383.68 93.31C384.79 97.34 386.25 101.02 388.06 104.35C389.87 107.68 392.19 110.75 395.01 113.57C395.21 113.77 395.39 113.95 395.54 114.1C395.69 114.25 395.87 114.43 396.07 114.63C397.48 115.94 398.99 117 400.61 117.81C402.22 118.62 404.04 119.22 406.05 119.62V119.47L406.08 119.46ZM416.06 31.62V23.45C417.07 23.65 418 23.8 418.86 23.9C419.72 24 420.6 24.15 421.51 24.35C422.92 24.65 424.48 25.11 426.2 25.71C427.91 26.31 430.08 27.17 432.7 28.28L435.12 28.73C435.62 28.83 436.05 28.78 436.41 28.58C436.76 28.38 437.04 28.13 437.24 27.82L438.9 25.55C439.3 25.05 439.73 24.67 440.19 24.42C440.64 24.17 441.17 24.04 441.78 24.04C443.09 24.04 444.05 24.52 444.65 25.48C445.26 26.44 445.56 27.93 445.56 29.94V54.13C445.56 55.64 445.16 56.88 444.35 57.83C443.54 58.79 442.48 59.27 441.17 59.27C439.96 59.27 439 58.87 438.3 58.06C437.59 57.25 437.04 55.89 436.64 53.98C435.53 48.44 433.09 43.65 429.31 39.62C425.53 35.59 421.12 32.97 416.08 31.76V31.61L416.06 31.62Z" fill="white"/>
<path d="M494.53 34.86C493.52 36.42 493.02 38.67 493.02 41.59V107.51C493.02 111.64 493.52 114.57 494.53 116.28C495.54 118 497.3 119.2 499.82 119.91V127.92C487.02 126.91 476.84 121.7 469.28 112.27C461.72 102.85 457.94 90.67 457.94 75.76C457.94 60.85 461.8 48.39 469.51 38.72C477.22 29.04 487.33 23.9 499.82 23.3V31.16C497.3 32.07 495.53 33.3 494.53 34.86ZM505.87 31.16V23.15C518.47 23.86 528.6 29.05 536.26 38.72C543.92 48.4 547.75 60.75 547.75 75.76C547.75 90.77 543.99 102.85 536.49 112.27C528.98 121.7 518.77 126.91 505.87 127.92V119.75C508.39 119.25 510.15 118.04 511.16 116.12C512.17 114.21 512.67 111.38 512.67 107.65V41.44C512.67 38.62 512.17 36.43 511.16 34.86C510.15 33.3 508.39 32.11 505.87 31.31V31.16Z" fill="white"/>
<path d="M575.41 64.12V103.73C575.41 107.26 575.99 110.13 577.15 112.35C578.31 114.57 580.15 116.38 582.67 117.79L584.79 118.85C585.49 119.36 586 119.89 586.3 120.44C586.6 120.99 586.75 121.63 586.75 122.33C586.75 123.64 586.27 124.57 585.31 125.13C584.35 125.69 582.71 125.96 580.4 125.96H563.47C561.25 125.96 559.59 125.66 558.48 125.05C557.37 124.45 556.82 123.49 556.82 122.18C556.82 121.78 556.87 121.42 556.97 121.12C557.07 120.82 557.22 120.57 557.42 120.36C557.72 120.06 558.12 119.73 558.63 119.38C559.13 119.03 559.79 118.6 560.6 118.09C563.02 116.68 564.81 114.82 565.97 112.5C567.13 110.18 567.71 107.31 567.71 103.88V50.96L575.42 64.11L575.41 64.12ZM637.85 93.3V125.96H617.74L567.69 39.63C567.09 38.72 566.56 37.94 566.1 37.29C565.65 36.63 565.22 36.11 564.81 35.7C564.41 35.3 564 34.99 563.6 34.79C563.2 34.59 562.74 34.39 562.24 34.19L559.52 32.98C558.81 32.88 558.23 32.5 557.78 31.85C557.33 31.2 557.1 30.47 557.1 29.66C557.1 28.75 557.38 27.92 557.93 27.17C558.48 26.41 559.11 25.94 559.82 25.73C560.32 25.53 561.08 25.4 562.09 25.35C563.1 25.3 564.46 25.27 566.17 25.27L598.53 25.12L637.84 93.31L637.85 93.3ZM630.14 68.35V47.94C630.14 43.91 629.54 40.78 628.33 38.57C627.12 36.35 625 34.49 621.98 32.98C621.88 32.88 621.75 32.81 621.6 32.75C621.45 32.7 621.32 32.63 621.22 32.52C620.51 32.12 620.01 31.66 619.71 31.16C619.41 30.66 619.26 29.95 619.26 29.04C619.26 27.73 619.69 26.77 620.55 26.17C621.41 25.56 622.79 25.26 624.71 25.26L643.16 25.11C645.28 25.21 646.81 25.59 647.77 26.24C648.73 26.9 649.21 27.93 649.21 29.34C649.21 29.84 649.16 30.27 649.06 30.63C648.96 30.98 648.76 31.36 648.46 31.76C648.16 32.06 647.73 32.37 647.17 32.67C646.61 32.97 645.93 33.33 645.13 33.73C642.71 35.04 640.9 36.86 639.69 39.17C638.48 41.49 637.88 44.46 637.88 48.09V81.5L630.17 68.35H630.14Z" fill="white"/>
<path d="M195.86 194.43H199.37V173.25H195.86V172.82H201.39C201.71 172.82 202.03 172.82 202.35 172.81C202.68 172.8 203.01 172.78 203.34 172.76C203.68 172.76 204 172.76 204.32 172.74C204.64 172.73 204.94 172.72 205.24 172.72C206.78 172.72 208.04 172.9 209.03 173.26C210.02 173.62 210.8 174.07 211.37 174.59C211.94 175.12 212.33 175.68 212.54 176.29C212.75 176.9 212.86 177.45 212.86 177.95C212.86 178.63 212.71 179.26 212.4 179.84C212.09 180.42 211.68 180.92 211.17 181.36C210.66 181.8 210.06 182.14 209.39 182.41C208.72 182.68 208.01 182.85 207.27 182.94V183C208.03 183.06 208.8 183.22 209.59 183.48C210.38 183.74 211.09 184.1 211.74 184.56C212.39 185.02 212.9 185.6 213.3 186.28C213.7 186.96 213.9 187.75 213.9 188.63C213.9 189.51 213.72 190.41 213.36 191.18C213 191.95 212.46 192.62 211.75 193.18C211.03 193.74 210.13 194.18 209.03 194.5C207.93 194.82 206.66 194.98 205.21 194.98C204.91 194.98 204.63 194.98 204.34 194.96C204.05 194.94 203.76 194.93 203.44 194.91C203.12 194.89 202.8 194.87 202.46 194.86C202.12 194.85 201.76 194.84 201.39 194.84H195.86V194.41V194.43ZM202.53 182.82H205.44C206.03 182.82 206.57 182.75 207.05 182.6C207.53 182.46 207.95 182.2 208.3 181.84C208.65 181.48 208.92 180.99 209.11 180.37C209.3 179.75 209.39 178.97 209.39 178.02C209.39 176.95 209.25 176.08 208.96 175.43C208.67 174.78 208.31 174.29 207.85 173.96C207.39 173.63 206.89 173.41 206.33 173.31C205.77 173.21 205.22 173.16 204.67 173.16C204.29 173.16 203.91 173.16 203.52 173.18C203.13 173.18 202.8 173.22 202.53 173.26V182.83V182.82ZM202.53 194.43C202.78 194.45 203.06 194.48 203.37 194.51C203.67 194.54 204.11 194.56 204.68 194.56C205.67 194.56 206.52 194.47 207.22 194.28C207.93 194.09 208.5 193.77 208.96 193.3C209.41 192.84 209.74 192.22 209.96 191.46C210.17 190.7 210.28 189.74 210.28 188.58C210.28 186.93 209.92 185.63 209.21 184.68C208.49 183.73 207.43 183.26 206.02 183.26H202.55V194.44L202.53 194.43Z" fill="white"/>
<path d="M217.9 194.43H220.68L229.21 172.26H229.97L238.56 194.43H241.37V194.86H231.64V194.43H235.15L231.83 185.82H224.5L221.18 194.43H224.69V194.86H217.9V194.43ZM228.16 176.38L224.69 185.39H231.64L228.17 176.38H228.16Z" fill="white"/>
<path d="M244.81 194.43H248.32V173.25H244.81V172.82H250.81C251.06 172.82 251.32 172.82 251.57 172.81C251.82 172.8 252.07 172.78 252.33 172.76C252.58 172.76 252.83 172.76 253.09 172.74C253.34 172.73 253.6 172.72 253.85 172.72C255.09 172.72 256.19 172.79 257.14 172.92C258.09 173.05 258.97 173.44 259.79 174.08C260.53 174.64 261.05 175.27 261.35 175.97C261.65 176.67 261.81 177.33 261.81 177.95C261.81 178.26 261.75 178.66 261.64 179.14C261.52 179.63 261.27 180.12 260.88 180.63C260.49 181.14 259.93 181.6 259.19 182.02C258.45 182.44 257.47 182.73 256.25 182.87V182.93C256.59 182.97 257.04 183.05 257.62 183.16C258.2 183.27 258.79 183.46 259.39 183.73C259.99 184 260.54 184.35 261.05 184.8C261.56 185.24 261.91 185.82 262.12 186.52C262.25 186.93 262.34 187.4 262.39 187.93C262.44 188.46 262.48 189 262.52 189.56C262.55 190.12 262.58 190.65 262.61 191.17C262.64 191.69 262.7 192.12 262.78 192.47C262.91 193.01 263.11 193.49 263.38 193.93C263.65 194.36 264.09 194.58 264.71 194.58C264.98 194.58 265.27 194.53 265.56 194.43C265.85 194.33 266.12 194.16 266.35 193.93L266.63 194.27C266.52 194.35 266.4 194.44 266.27 194.53C266.14 194.62 265.96 194.71 265.75 194.79C265.54 194.87 265.28 194.94 264.98 194.99C264.67 195.04 264.3 195.07 263.86 195.07C263.02 195.07 262.32 194.97 261.76 194.76C261.2 194.55 260.75 194.25 260.42 193.85C260.08 193.45 259.84 192.95 259.68 192.36C259.52 191.77 259.41 191.09 259.35 190.3L259.13 187.48C259.05 186.45 258.84 185.64 258.5 185.06C258.16 184.48 257.77 184.06 257.32 183.79C256.87 183.52 256.4 183.36 255.91 183.31C255.42 183.26 255 183.23 254.65 183.23H251.49V194.41H255V194.84H244.83V194.41L244.81 194.43ZM251.48 182.82H254.39C254.98 182.82 255.52 182.75 256 182.6C256.48 182.46 256.9 182.2 257.25 181.84C257.6 181.48 257.87 180.99 258.06 180.37C258.25 179.75 258.34 178.97 258.34 178.02C258.34 176.95 258.2 176.08 257.91 175.43C257.62 174.78 257.26 174.29 256.8 173.96C256.34 173.63 255.84 173.41 255.28 173.31C254.72 173.21 254.17 173.16 253.62 173.16C253.24 173.16 252.86 173.16 252.47 173.18C252.08 173.18 251.75 173.22 251.48 173.26V182.83V182.82Z" fill="white"/>
<path d="M270.14 194.43H273.65V173.25H270.14V172.82H275.67C275.99 172.82 276.31 172.82 276.63 172.81C276.96 172.8 277.29 172.78 277.62 172.76C277.96 172.76 278.28 172.76 278.6 172.74C278.92 172.73 279.22 172.72 279.52 172.72C281.06 172.72 282.32 172.9 283.31 173.26C284.3 173.62 285.08 174.07 285.65 174.59C286.22 175.12 286.61 175.68 286.82 176.29C287.03 176.9 287.14 177.45 287.14 177.95C287.14 178.63 286.99 179.26 286.68 179.84C286.37 180.42 285.96 180.92 285.45 181.36C284.94 181.8 284.34 182.14 283.67 182.41C283 182.68 282.29 182.85 281.55 182.94V183C282.31 183.06 283.08 183.22 283.87 183.48C284.66 183.74 285.37 184.1 286.02 184.56C286.67 185.02 287.18 185.6 287.58 186.28C287.98 186.96 288.18 187.75 288.18 188.63C288.18 189.51 288 190.41 287.64 191.18C287.28 191.95 286.74 192.62 286.03 193.18C285.31 193.74 284.41 194.18 283.31 194.5C282.21 194.82 280.94 194.98 279.49 194.98C279.19 194.98 278.91 194.98 278.62 194.96C278.33 194.94 278.04 194.93 277.72 194.91C277.4 194.89 277.08 194.87 276.74 194.86C276.4 194.85 276.04 194.84 275.67 194.84H270.14V194.41V194.43ZM276.81 182.82H279.72C280.31 182.82 280.85 182.75 281.33 182.6C281.81 182.46 282.23 182.2 282.58 181.84C282.93 181.48 283.2 180.99 283.39 180.37C283.58 179.75 283.67 178.97 283.67 178.02C283.67 176.95 283.53 176.08 283.24 175.43C282.95 174.78 282.59 174.29 282.13 173.96C281.67 173.63 281.17 173.41 280.61 173.31C280.05 173.21 279.5 173.16 278.95 173.16C278.57 173.16 278.19 173.16 277.8 173.18C277.41 173.18 277.08 173.22 276.81 173.26V182.83V182.82ZM276.81 194.43C277.06 194.45 277.34 194.48 277.65 194.51C277.95 194.54 278.39 194.56 278.96 194.56C279.95 194.56 280.8 194.47 281.5 194.28C282.21 194.09 282.78 193.77 283.24 193.3C283.69 192.84 284.02 192.22 284.24 191.46C284.45 190.7 284.56 189.74 284.56 188.58C284.56 186.93 284.2 185.63 283.49 184.68C282.77 183.73 281.71 183.26 280.3 183.26H276.83V194.44L276.81 194.43Z" fill="white"/>
<path d="M293.74 194.43H297.25V173.25H293.74V172.82H311.81V178.18H311.46C311.19 177.37 310.89 176.67 310.58 176.06C310.26 175.45 309.88 174.94 309.44 174.51C309 174.09 308.47 173.77 307.86 173.57C307.25 173.36 306.51 173.26 305.65 173.26H300.41V182.83H302.46C303.15 182.83 303.74 182.77 304.23 182.64C304.71 182.52 305.13 182.28 305.48 181.94C305.83 181.6 306.12 181.14 306.36 180.55C306.6 179.96 306.84 179.2 307.07 178.27H307.42V187.9H307.07C306.92 187.3 306.77 186.72 306.61 186.17C306.45 185.62 306.23 185.12 305.95 184.68C305.67 184.24 305.29 183.9 304.81 183.64C304.34 183.38 303.72 183.25 302.96 183.25H300.4V194.43H306.37C307.53 194.43 308.49 194.19 309.26 193.7C310.03 193.21 310.65 192.64 311.14 191.97C311.63 191.3 311.98 190.6 312.21 189.88C312.44 189.16 312.59 188.56 312.65 188.08H313V194.86H293.73V194.43H293.74Z" fill="white"/>
<path d="M318.5 194.43H322.01V173.25H318.5V172.82H324.5C324.75 172.82 325.01 172.82 325.26 172.81C325.51 172.8 325.76 172.78 326.02 172.76C326.27 172.76 326.52 172.76 326.78 172.74C327.03 172.73 327.29 172.72 327.54 172.72C328.78 172.72 329.88 172.79 330.83 172.92C331.78 173.05 332.66 173.44 333.48 174.08C334.22 174.64 334.74 175.27 335.04 175.97C335.34 176.67 335.5 177.33 335.5 177.95C335.5 178.26 335.44 178.66 335.33 179.14C335.21 179.63 334.96 180.12 334.57 180.63C334.18 181.14 333.62 181.6 332.88 182.02C332.14 182.44 331.16 182.73 329.94 182.87V182.93C330.28 182.97 330.73 183.05 331.31 183.16C331.89 183.27 332.48 183.46 333.08 183.73C333.68 184 334.23 184.35 334.74 184.8C335.25 185.24 335.6 185.82 335.81 186.52C335.94 186.93 336.03 187.4 336.08 187.93C336.13 188.46 336.17 189 336.21 189.56C336.24 190.12 336.27 190.65 336.3 191.17C336.33 191.69 336.39 192.12 336.47 192.47C336.6 193.01 336.8 193.49 337.07 193.93C337.34 194.36 337.78 194.58 338.4 194.58C338.67 194.58 338.96 194.53 339.25 194.43C339.54 194.33 339.81 194.16 340.04 193.93L340.32 194.27C340.21 194.35 340.09 194.44 339.96 194.53C339.83 194.62 339.65 194.71 339.44 194.79C339.23 194.87 338.97 194.94 338.67 194.99C338.36 195.04 337.99 195.07 337.55 195.07C336.71 195.07 336.01 194.97 335.45 194.76C334.89 194.55 334.44 194.25 334.11 193.85C333.77 193.45 333.53 192.95 333.37 192.36C333.21 191.77 333.1 191.09 333.04 190.3L332.82 187.48C332.74 186.45 332.53 185.64 332.19 185.06C331.85 184.48 331.46 184.06 331.01 183.79C330.56 183.52 330.09 183.36 329.6 183.31C329.11 183.26 328.69 183.23 328.34 183.23H325.18V194.41H328.69V194.84H318.52V194.41L318.5 194.43ZM325.17 182.82H328.08C328.67 182.82 329.21 182.75 329.69 182.6C330.17 182.46 330.59 182.2 330.94 181.84C331.29 181.48 331.56 180.99 331.75 180.37C331.94 179.75 332.03 178.97 332.03 178.02C332.03 176.95 331.89 176.08 331.6 175.43C331.31 174.78 330.95 174.29 330.49 173.96C330.03 173.63 329.53 173.41 328.97 173.31C328.41 173.21 327.86 173.16 327.31 173.16C326.93 173.16 326.55 173.16 326.16 173.18C325.77 173.18 325.44 173.22 325.17 173.26V182.83V182.82Z" fill="white"/>
<path d="M356.56 188.21H356.91C357.14 189.33 357.44 190.26 357.81 191.03C358.18 191.8 358.58 192.42 359.03 192.92C359.47 193.42 359.94 193.8 360.42 194.07C360.9 194.34 361.39 194.53 361.89 194.66C362.39 194.78 362.86 194.86 363.31 194.88C363.76 194.9 364.19 194.91 364.59 194.91C365.71 194.91 366.62 194.74 367.34 194.41C368.05 194.08 368.62 193.66 369.05 193.16C369.47 192.65 369.77 192.11 369.93 191.52C370.1 190.93 370.18 190.39 370.18 189.89C370.18 189.17 370.04 188.55 369.77 188.03C369.5 187.51 369.15 187.07 368.73 186.71C368.31 186.35 367.85 186.05 367.36 185.83C366.86 185.6 366.4 185.43 365.95 185.3L362.32 184.22C360.61 183.7 359.32 183.02 358.45 182.18C357.58 181.33 357.14 180.2 357.14 178.77C357.14 177.84 357.31 176.98 357.64 176.18C357.97 175.38 358.45 174.7 359.06 174.12C359.67 173.54 360.4 173.09 361.26 172.76C362.11 172.43 363.04 172.26 364.05 172.26C364.79 172.26 365.4 172.32 365.9 172.45C366.39 172.57 366.82 172.71 367.18 172.87C367.54 173.03 367.86 173.16 368.14 173.29C368.42 173.41 368.71 173.48 369.01 173.48C369.28 173.48 369.47 173.44 369.56 173.37C369.65 173.3 369.79 173.12 369.95 172.83H370.39V178.44H370.01C369.88 177.7 369.67 176.98 369.36 176.29C369.05 175.6 368.66 174.99 368.18 174.46C367.7 173.93 367.11 173.51 366.43 173.19C365.75 172.87 364.95 172.71 364.05 172.71C363.54 172.71 362.99 172.78 362.38 172.91C361.77 173.04 361.2 173.28 360.67 173.61C360.14 173.94 359.71 174.37 359.36 174.91C359.01 175.45 358.84 176.13 358.84 176.95C358.84 177.61 358.98 178.17 359.25 178.64C359.52 179.1 359.88 179.5 360.31 179.82C360.74 180.14 361.23 180.41 361.76 180.62C362.29 180.83 362.84 181.03 363.39 181.19L367.21 182.37C367.61 182.49 368.12 182.66 368.73 182.87C369.34 183.08 369.94 183.39 370.51 183.8C371.08 184.21 371.58 184.76 371.99 185.44C372.4 186.12 372.61 186.99 372.61 188.04C372.61 189.01 372.43 189.93 372.06 190.81C371.69 191.69 371.16 192.46 370.46 193.13C369.77 193.8 368.92 194.34 367.93 194.74C366.94 195.14 365.82 195.34 364.58 195.34C364.14 195.34 363.75 195.34 363.41 195.32C363.07 195.31 362.76 195.28 362.46 195.24C362.17 195.2 361.87 195.15 361.58 195.1C361.29 195.05 360.96 194.97 360.6 194.87C360.18 194.75 359.73 194.6 359.24 194.44C358.76 194.27 358.33 194.19 357.98 194.19C357.66 194.19 357.45 194.25 357.33 194.38C357.21 194.5 357.11 194.67 357.03 194.88H356.56V188.22V188.21Z" fill="white"/>
<path d="M378.73 194.43H382.24V173.25H378.73V172.82H388.9V173.25H385.39V183.38H395.91V173.25H392.4V172.82H402.57V173.25H399.06V194.43H402.57V194.86H392.4V194.43H395.91V183.81H385.39V194.43H388.9V194.86H378.73V194.43Z" fill="white"/>
<path d="M408.2 183.81C408.2 182.16 408.53 180.63 409.2 179.23C409.86 177.83 410.72 176.61 411.76 175.58C412.8 174.55 413.98 173.74 415.28 173.15C416.59 172.56 417.89 172.27 419.2 172.27C420.59 172.27 421.94 172.56 423.26 173.15C424.58 173.74 425.75 174.55 426.78 175.58C427.81 176.61 428.64 177.83 429.26 179.23C429.88 180.63 430.19 182.16 430.19 183.81C430.19 185.26 429.91 186.67 429.34 188.05C428.77 189.43 427.99 190.66 427 191.73C426.01 192.8 424.85 193.67 423.51 194.33C422.17 194.99 420.74 195.32 419.2 195.32C417.66 195.32 416.16 195 414.81 194.36C413.46 193.72 412.3 192.87 411.32 191.81C410.34 190.75 409.58 189.52 409.03 188.12C408.48 186.73 408.21 185.29 408.21 183.8L408.2 183.81ZM411.83 183.81C411.83 185.67 411.96 187.29 412.21 188.67C412.46 190.05 412.88 191.21 413.47 192.14C414.06 193.07 414.82 193.76 415.74 194.21C416.67 194.67 417.81 194.89 419.18 194.89C420.55 194.89 421.67 194.66 422.61 194.21C423.55 193.76 424.31 193.06 424.9 192.14C425.49 191.21 425.91 190.05 426.16 188.67C426.41 187.29 426.54 185.67 426.54 183.81C426.54 182.39 426.45 181.01 426.26 179.68C426.07 178.35 425.71 177.16 425.17 176.12C424.63 175.08 423.89 174.25 422.93 173.63C421.97 173.01 420.72 172.7 419.19 172.7C417.66 172.7 416.4 173.01 415.45 173.63C414.49 174.25 413.74 175.08 413.21 176.12C412.67 177.16 412.31 178.35 412.12 179.68C411.93 181.01 411.84 182.39 411.84 183.81H411.83Z" fill="white"/>
<path d="M435.8 194.43H439.31V173.25H435.8V172.82H441.74C442.03 172.82 442.33 172.82 442.62 172.81C442.91 172.8 443.21 172.78 443.5 172.76C443.79 172.76 444.08 172.76 444.37 172.74C444.65 172.73 444.94 172.72 445.24 172.72C446.44 172.72 447.55 172.86 448.57 173.14C449.59 173.42 450.48 173.82 451.22 174.33C451.97 174.85 452.55 175.47 452.97 176.19C453.39 176.91 453.6 177.72 453.6 178.61C453.6 179.5 453.36 180.36 452.87 181.09C452.38 181.81 451.74 182.42 450.94 182.92C450.14 183.42 449.21 183.8 448.14 184.07C447.08 184.34 445.97 184.47 444.81 184.47C444.52 184.47 444.14 184.44 443.67 184.39C443.21 184.34 442.8 184.28 442.44 184.22V194.44H445.95V194.87H435.78V194.44L435.8 194.43ZM442.47 183.78C442.89 183.86 443.33 183.92 443.8 183.97C444.26 184.01 444.67 184.03 445.03 184.03C446.59 184.03 447.8 183.58 448.68 182.68C449.55 181.78 449.99 180.43 449.99 178.61C449.99 177.56 449.88 176.68 449.67 175.98C449.46 175.28 449.13 174.71 448.67 174.29C448.22 173.87 447.63 173.57 446.9 173.41C446.17 173.24 445.3 173.16 444.29 173.16C443.89 173.16 443.53 173.16 443.2 173.19C442.87 173.21 442.63 173.23 442.46 173.25V183.78H442.47Z" fill="white"/>
<path d="M467 187.8C469.209 187.8 471 186.009 471 183.8C471 181.591 469.209 179.8 467 179.8C464.791 179.8 463 181.591 463 183.8C463 186.009 464.791 187.8 467 187.8Z" fill="white"/>
<path d="M184 187.96C186.209 187.96 188 186.169 188 183.96C188 181.751 186.209 179.96 184 179.96C181.791 179.96 180 181.751 180 183.96C180 186.169 181.791 187.96 184 187.96Z" fill="white"/>
<path d="M0 150.96C207.9 150.35 441.11 150.34 649 150.96C441.1 151.58 207.89 151.57 0 150.96Z" fill="url(#paint0_linear_6_161)"/>
<path d="M0 0.460006C207.9 -0.149994 441.11 -0.159994 649 0.460006C441.1 1.08001 207.89 1.07001 0 0.460006Z" fill="url(#paint1_linear_6_161)"/>
</g>
<defs>
<linearGradient id="paint0_linear_6_161" x1="0" y1="150.96" x2="649" y2="150.96" gradientUnits="userSpaceOnUse">
<stop stop-color="white" stop-opacity="0"/>
<stop offset="0.51" stop-color="white"/>
<stop offset="1" stop-color="white" stop-opacity="0"/>
</linearGradient>
<linearGradient id="paint1_linear_6_161" x1="0" y1="0.46001" x2="649" y2="0.46001" gradientUnits="userSpaceOnUse">
<stop stop-color="white" stop-opacity="0"/>
<stop offset="0.51" stop-color="white"/>
<stop offset="1" stop-color="white" stop-opacity="0"/>
</linearGradient>
<clipPath id="clip0_6_161">
<rect width="649.2" height="195.33" fill="white"/>
</clipPath>
</defs>
</svg>
