<svg width="32" height="32" viewBox="0 0 32 32" fill="none" xmlns="http://www.w3.org/2000/svg">
<path d="M12.1993 32C9.86996 32 7.67308 31.2569 5.84621 29.8506C5.50383 29.587 5.178 29.3025 4.87058 28.9988C2.73808 26.8913 1.66496 24.0844 1.84933 21.095C1.98871 18.8356 2.89871 16.6575 4.41308 14.9619C6.41871 12.7162 9.18371 11.4794 12.2 11.4794C12.7181 11.4794 13.2412 11.5181 13.7562 11.5944L14.5562 11.7131V18.8125L13.3243 18.4056C12.9665 18.2871 12.5919 18.2267 12.215 18.2269C11.2612 18.2269 10.3681 18.6006 9.69996 19.2787C9.03496 19.9537 8.67683 20.8463 8.69058 21.7931C8.70871 23.0138 9.35183 24.12 10.4106 24.7537C10.8981 25.045 11.4531 25.2156 12.0168 25.2469C12.4618 25.2713 12.9012 25.2131 13.3237 25.0737C14.7681 24.5969 15.7387 23.2569 15.7387 21.74L15.745 14.3775V0H22.53L22.5381 0.92875C22.5418 1.34938 22.585 1.77 22.6662 2.1775C22.985 3.78 23.8837 5.20813 25.1968 6.19812C26.3625 7.0775 27.7537 7.54187 29.2187 7.54187C29.2531 7.54187 29.2531 7.54187 29.5662 7.56375L30.4381 7.625V14.3125L30.1256 14.3119H29.1825C27.3756 14.3119 25.6825 13.9675 24.0043 13.2594C23.5043 13.0481 23.0175 12.8069 22.5475 12.5375L22.5687 21.7756C22.5575 24.5081 21.4775 27.0713 19.5281 28.9981C17.9462 30.5613 15.95 31.56 13.755 31.885C13.2399 31.9615 12.72 32 12.1993 32ZM12.1993 13.3544C9.72496 13.3544 7.45621 14.3687 5.81121 16.2106C4.57621 17.5938 3.83371 19.3694 3.71996 21.21C3.56996 23.6506 4.44621 25.9431 6.18808 27.6644C6.43996 27.9131 6.70933 28.1487 6.98933 28.3644C8.48558 29.5162 10.2875 30.125 12.1993 30.125C12.6281 30.125 13.0587 30.0931 13.4806 30.0306C15.2787 29.7644 16.9143 28.9463 18.2106 27.665C19.8031 26.0913 20.685 23.9994 20.6943 21.7744L20.665 8.875L22.1793 10.0431C22.9635 10.6474 23.8222 11.1482 24.7343 11.5331C25.9825 12.06 27.2406 12.3525 28.5625 12.4219V9.39375C26.9287 9.27125 25.3856 8.69063 24.0675 7.69625C22.3862 6.42875 21.2356 4.59875 20.8268 2.54437C20.7831 2.32375 20.7475 2.10063 20.7212 1.87563H17.6193V14.3781L17.6131 21.7406C17.6131 24.0675 16.1256 26.1225 13.9112 26.8538C13.2656 27.0669 12.5937 27.1556 11.9137 27.1187C11.0475 27.0712 10.195 26.8094 9.44746 26.3625C7.82683 25.3931 6.84246 23.695 6.81496 21.8206C6.79371 20.3681 7.34308 18.9981 8.36308 17.9625C9.38621 16.9237 10.7537 16.3519 12.2137 16.3519C12.37 16.3519 12.525 16.3588 12.68 16.3719V13.3675C12.52 13.3588 12.3593 13.3544 12.1993 13.3544Z" fill="#AD0D0D"/>
</svg>
